<?xml version="1.0" encoding="UTF-8" standalone="no"?>
<!-- Created with Inkscape (http://www.inkscape.org/) -->

<svg
   width="194.07816mm"
   height="182.16913mm"
   viewBox="0 0 194.07816 182.16913"
   version="1.1"
   id="svg1"
   xml:space="preserve"
   xmlns="http://www.w3.org/2000/svg"
   xmlns:svg="http://www.w3.org/2000/svg"><defs
     id="defs1" /><g
     id="layer1"
     transform="translate(-8.1727192,-54.552824)"><path
       style="fill:#000000;stroke-width:0.0123771"
       d="M 107.28068,236.60058 C 90.325213,235.08209 75.808478,231.47277 63.449106,225.70265 52.242516,220.47069 41.304418,213.33236 34.618303,206.88729 20.445111,193.22506 12.535995,178.8909 9.1332236,160.69917 7.9266675,154.24853 7.8397983,139.57284 8.9693085,133.00104 10.679926,123.04814 13.891748,114.24821 19.013407,105.48162 31.055593,84.869404 50.149335,69.883118 75.407725,61.218873 89.00406,56.554993 101.6823,54.552824 117.61865,54.552824 c 16.81413,0 29.73726,1.922095 43.3284,6.444401 10.86676,3.615799 19.28328,7.631556 27.83787,13.282132 5.43013,3.586808 13.6477,9.883504 13.4629,10.315945 -0.24646,0.576785 -28.50951,22.137198 -29.01915,22.137198 -0.16674,0 -2.44176,-1.54448 -5.05554,-3.43216 -11.04846,-7.979174 -21.74673,-12.440404 -35.58688,-14.839873 -4.32622,-0.750022 -6.02062,-0.847312 -14.67299,-0.842393 -8.59593,0.0057 -10.32346,0.104739 -14.24771,0.824018 -12.78991,2.344174 -23.093533,6.604859 -33.984348,14.052918 -3.971802,2.71629 -4.118863,3.07506 -1.287111,3.14019 1.764503,0.0406 6.979997,1.29155 10.552967,2.53118 3.315087,1.15016 3.315087,1.15016 5.829691,-0.44252 5.970465,-3.78149 12.789092,-6.51587 20.543831,-8.238365 4.71161,-1.046542 5.33559,-1.097908 13.65592,-1.124227 7.01425,-0.02219 9.42211,0.102336 12.31659,0.636689 11.59819,2.141283 20.93404,6.385203 29.12803,13.241183 10.64795,8.90911 16.04956,19.76888 16.1044,32.37724 0.0446,10.24764 -2.68471,17.84059 -9.48263,26.38085 -8.77051,11.01848 -23.28564,18.80336 -38.16496,20.46902 -6.08456,0.68114 -17.21399,0.23372 -22.65791,-0.91089 -20.959804,-4.40686 -36.777992,-18.45693 -41.493237,-36.85523 -1.337016,-5.21677 -0.931967,-13.70377 0.906839,-19.00147 0.488752,-1.40815 -0.63331,-0.90981 -3.621225,1.60829 -6.165236,5.19586 -8.620053,12.61033 -7.08577,21.40195 1.552576,8.89627 6.475217,17.28469 14.584138,24.85198 11.742773,10.95837 24.88022,16.85359 41.682895,18.70453 21.65367,2.38532 43.62892,-4.05858 59.01599,-17.30556 1.16082,-0.99934 2.2777,-1.81698 2.48196,-1.81698 0.41047,0 2.34225,1.41044 18.29893,13.36046 6.00611,4.49802 10.9209,8.3579 10.92173,8.57748 0.005,0.5972 -10.31863,8.99872 -14.46183,11.77244 -16.33038,10.9326 -33.92674,17.42366 -54.43889,20.08178 -4.31737,0.55946 -21.85125,1.013 -25.73087,0.66555 z m 24.45495,-8.17172 c 11.13652,-1.43222 20.35147,-3.86827 30.40921,-8.03895 7.77206,-3.22285 13.86877,-6.46404 19.98931,-10.62699 4.29275,-2.91974 7.75605,-5.69359 7.41518,-5.93906 -1.03764,-0.74727 -14.86829,-10.88067 -15.54831,-11.39188 -0.89798,-0.67508 -0.91789,-0.66776 -3.61508,1.33101 -6.31424,4.67918 -16.69757,9.66074 -25.63071,12.29677 -9.78262,2.88668 -23.89383,4.01146 -34.28481,2.73279 -22.453334,-2.76303 -40.869906,-12.45731 -53.343187,-28.07925 -2.530899,-3.16982 -6.624644,-9.70499 -6.624644,-10.57551 0,-0.27707 -0.164836,-0.50374 -0.366334,-0.50374 -0.201488,0 -0.30174,0.36185 -0.222838,0.80413 0.07894,0.44226 0.444069,2.62656 0.811432,4.85397 0.881856,5.34718 3.062179,11.59744 5.849459,16.76849 2.179596,4.04374 8.093647,12.36568 9.469713,13.32537 0.366605,0.25567 0.87486,0.79193 1.129442,1.19169 0.65167,1.02323 -6.393742,-4.30532 -9.518007,-7.19864 -6.828916,-6.32407 -11.219045,-13.76244 -13.613596,-23.06587 -0.807932,-3.13915 -0.940276,-4.77487 -0.95963,-11.86139 -0.02367,-8.64311 0.265881,-10.93216 2.127505,-16.82203 2.257202,-7.14144 5.546272,-12.14091 10.703219,-16.2691 5.286436,-4.23184 10.298105,-6.04362 16.717618,-6.04362 5.348587,0 10.347383,1.61299 14.072117,4.54076 2.24945,1.76813 4.955112,4.96961 5.475509,6.47892 0.32858,0.95306 0.32858,0.95306 1.106549,-0.47654 0.526643,-0.96775 0.783354,-2.29792 0.794712,-4.11756 0.01476,-2.3497 -0.165934,-3.00186 -1.43516,-5.18221 -2.711775,-4.65843 -9.819783,-9.72991 -16.829092,-12.00743 -9.769674,-3.17436 -18.410423,-2.88218 -27.706547,0.937 -18.472545,7.58913 -28.919014,26.30501 -26.973614,48.32597 0.933716,10.56941 3.461428,17.48993 9.51581,26.05302 8.663882,12.25388 21.752934,22.39544 38.209337,29.605 12.224395,5.35554 24.339436,8.37425 38.093517,9.49181 5.40889,0.43949 19.57635,0.13258 24.78192,-0.53693 z m -14.88565,-52.54041 c 0,-9.92653 0.79771,-9.15816 -8.71872,-8.39801 -5.80195,0.46343 -7.44279,0.71399 -7.44279,1.13643 0,0.19776 1.04284,2.15377 2.31746,4.34667 2.78299,4.78797 6.1299,8.33365 9.69339,10.26909 4.3745,2.37594 4.15066,2.77254 4.15066,-7.35418 z m 8.06451,8.04836 c 2.46144,-1.05523 6.56082,-4.40662 8.70443,-7.1162 1.90991,-2.41421 4.92158,-7.36777 4.92158,-8.09499 0,-0.40728 -5.54231,-1.05073 -12.65283,-1.46899 -3.93404,-0.2314 -3.93404,-0.2314 -3.93404,8.57831 0,9.83076 -0.14517,9.43347 2.96086,8.10187 z m 14.42223,-1.37896 c 5.28677,-1.91532 9.15541,-3.93752 13.05236,-6.82268 4.13615,-3.06226 4.43646,-3.48019 2.86686,-3.98979 -1.64531,-0.53421 -10.81526,-2.54581 -10.9618,-2.40467 -0.0655,0.063 -0.81962,1.46254 -1.67587,3.10998 -1.93986,3.73225 -4.7358,7.39431 -7.61153,9.96946 -2.20783,1.97712 -2.20783,1.97712 -0.88437,1.76221 0.72788,-0.11816 3.07434,-0.84921 5.21435,-1.62451 z m -34.63861,0.49837 c -2.46909,-1.63587 -7.931616,-9.47734 -8.914517,-12.79675 -0.170571,-0.57606 -0.579973,-0.98149 -0.989176,-0.97958 -0.861367,0.004 -8.186007,1.57105 -10.409536,2.22701 -1.630588,0.48104 -1.630588,0.48104 1.540872,3.01259 4.812403,3.84144 9.778182,6.45396 16.248457,8.54847 3.33325,1.07898 4.16435,1.07512 2.5239,-0.0113 z m 57.5155,-16.90678 c 3.505,-4.82351 6.03595,-11.08368 6.71886,-16.61888 0.29761,-2.41241 0.29761,-2.41241 -9.87966,-2.41241 -10.17725,0 -10.17725,0 -10.68615,4.73548 -0.27988,2.60451 -0.90855,6.34376 -1.39703,8.30943 -0.48849,1.96569 -0.91024,3.86512 -0.93726,4.22097 -0.0408,0.53754 0.89174,0.85049 5.5113,1.84961 3.0582,0.66144 6.21611,1.44275 7.0175,1.73625 0.80147,0.29352 1.55666,0.54678 1.67831,0.5628 0.12169,0.016 1.00997,-1.05643 1.97413,-2.38325 z m -77.726734,0.63929 c 2.478126,-0.58208 5.558319,-1.27168 6.844882,-1.53246 1.660892,-0.33667 2.296768,-0.62566 2.192958,-0.9967 -0.949815,-3.39416 -1.843272,-8.22219 -2.262727,-12.22725 -0.514671,-4.91417 -0.514671,-4.91417 -10.217075,-4.91417 -9.702448,0 -9.702448,0 -9.702448,1.21944 0,1.85011 1.144784,6.48863 2.355122,9.54263 1.447653,3.65283 5.284582,9.96684 6.056712,9.96684 0.124786,0 2.254457,-0.47626 4.732576,-1.05833 z m 55.899284,-2.78366 c 0.76678,-1.0558 2.83269,-12.43856 2.83269,-15.6076 0,-1.27932 0,-1.27932 -10.6326,-1.27932 -10.63262,0 -10.63262,0 -10.63262,7.81045 0,7.81047 0,7.81047 5.20998,8.07089 2.86547,0.14323 6.74109,0.46601 8.61239,0.7173 4.49104,0.60307 4.3863,0.59653 4.61016,0.28828 z m -35.65732,-0.62143 c 2.57307,-0.28939 6.35663,-0.52931 8.40788,-0.53313 3.72953,-0.007 3.72953,-0.007 3.61509,-7.88389 -0.11446,-7.87691 -0.11446,-7.87691 -10.10912,-7.87143 -9.994639,0.006 -9.994639,0.006 -9.908837,3.80581 0.04718,2.09017 0.293914,4.70755 0.548333,5.81639 1.244893,5.42623 1.80284,7.1981 2.265682,7.19535 0.276447,-0.001 2.607882,-0.23972 5.180972,-0.5291 z m 3.2961,-20.90674 c 8.82504,-0.006 8.82504,-0.006 8.82504,-7.66317 0,-8.62787 0.88492,-7.69797 -7.86809,-8.26811 -1.87133,-0.12184 -4.34252,-0.36854 -5.4915,-0.54812 -1.14893,-0.17959 -2.15708,-0.26931 -2.24029,-0.19939 -0.0832,0.07 0.16152,1.15306 0.54381,2.40699 1.40305,4.60218 -0.11558,10.16354 -3.567442,13.06424 -1.390896,1.1688 -1.345725,1.73611 0.111983,1.40696 0.47379,-0.10701 4.832679,-0.19672 9.686469,-0.1994 z m -22.647417,-0.52757 c 0,-0.28748 -0.393069,-1.4055 -0.873481,-2.48449 -1.451406,-3.2598 -5.156466,-6.14851 -9.171584,-7.15072 -0.78593,-0.19618 -1.016009,0.0387 -1.801871,1.83929 -1.182194,2.70881 -2.188121,6.07457 -2.188121,7.3215 0,0.9971 0,0.9971 7.017513,0.9971 5.874266,0 7.017544,-0.0851 7.017544,-0.52268 z m 57.840797,-0.46016 c 0,-2.00686 -1.31933,-10.36424 -2.04358,-12.95556 -0.86889,-3.10876 -0.24322,-2.93857 -8.16319,-2.22041 -2.45615,0.22269 -5.94895,0.50546 -7.76182,0.62835 -3.2961,0.22345 -3.2961,0.22345 -3.2961,7.87696 0,7.6535 0,7.6535 10.63262,7.6535 10.6326,0 10.6326,0 10.63207,-0.98284 z m 25.65466,-0.89348 c -0.78607,-5.91618 -4.56239,-14.43896 -8.17602,-18.4525 -0.76603,-0.85079 -0.76603,-0.85079 -3.48679,-0.097 -1.49642,0.41463 -4.63466,1.1396 -6.97381,1.61103 -4.89884,0.98731 -4.747,0.74991 -3.46124,5.41237 0.37945,1.37599 1.01358,4.9544 1.40909,7.95205 0.71922,5.45027 0.71922,5.45027 10.82863,5.45027 10.10944,0 10.10944,0 9.86014,-1.87631 z M 17.97869,134.51997 c 0.946171,-2.47195 4.433854,-7.99793 7.161726,-11.34729 2.826403,-3.47035 9.426198,-9.00362 13.350365,-11.19297 3.731597,-2.08195 9.155412,-4.24395 12.732225,-5.07529 2.173462,-0.50515 2.815587,-0.83947 3.670706,-1.91101 3.085763,-3.86693 11.55443,-10.335378 18.978563,-14.496032 18.652826,-10.453455 43.598125,-13.536619 66.582085,-8.229345 11.39827,2.632001 21.04766,6.889577 31.4144,13.860882 1.50455,1.011755 1.50455,1.011755 9.50004,-5.178276 4.39751,-3.404511 7.99551,-6.319576 7.99551,-6.477928 0,-0.485757 -6.10361,-4.451008 -11.48323,-7.460176 -10.00078,-5.594093 -22.94226,-10.292152 -34.66581,-12.584536 -10.05441,-1.965997 -12.62431,-2.188309 -25.30201,-2.18879 -13.07539,0 -16.92453,0.377018 -27.405911,2.687848 C 78.91332,67.483182 65.323366,73.12139 55.035728,79.64354 50.199787,82.709421 40.652019,90.848346 36.883673,95.117159 29.166986,103.85862 23.576889,113.16293 20.338888,122.65478 c -1.105555,3.24083 -3.435308,12.31923 -3.435308,13.38646 0,0.80917 0.399484,0.24389 1.07511,-1.52127 z m 98.87129,-20.63957 c 0,-4.71762 -0.14357,-8.57598 -0.31897,-8.57413 -0.17544,0.001 -1.28442,0.46869 -2.4644,1.03746 -2.77716,1.33861 -6.95311,5.10481 -8.89405,8.02136 -1.9111,2.87168 -3.76782,6.66949 -3.40833,6.97157 0.39927,0.33553 7.98547,1.02965 11.78966,1.07872 3.29609,0.0426 3.29609,0.0426 3.29609,-8.53498 z m 16.24569,7.97824 c 2.99464,-0.32958 5.44483,-0.73522 5.44483,-0.90142 0,-0.65591 -3.60312,-6.30426 -5.31544,-8.33268 -2.41563,-2.86151 -5.11572,-4.90109 -8.24648,-6.22914 -1.41647,-0.60086 -2.67653,-1.09248 -2.80014,-1.09248 -0.12372,0 -0.22481,3.85986 -0.22481,8.57748 0,8.57747 0,8.57747 2.84861,8.57747 1.56674,0 5.29879,-0.26965 8.29343,-0.59923 z m 18.34816,-3.00015 c 2.53549,-0.54523 4.70791,-1.07363 4.82765,-1.17425 0.28308,-0.23788 -3.96789,-3.55915 -7.03783,-5.4986 -3.67205,-2.31991 -13.09405,-6.16794 -15.10227,-6.16794 -0.30761,0 0.28238,0.76393 1.31105,1.69763 1.94466,1.76506 5.6242,6.59187 6.7195,8.81464 0.34737,0.70498 0.90782,1.84248 1.24543,2.52779 0.71035,1.44199 0.36433,1.45057 8.03647,-0.19927 z M 97.261112,117.7224 c 0.898543,-2.55071 4.146208,-7.48669 6.259658,-9.51365 2.00086,-1.91901 2.00086,-1.91901 0.54119,-1.65039 -2.46261,0.45323 -8.696525,2.91255 -11.851507,4.67548 -2.993538,1.67273 -2.993538,1.67273 0.40306,4.48133 1.868116,1.54474 3.396599,2.97007 3.396599,3.16737 0,0.91878 0.770341,0.20437 1.251,-1.16014 z"
       id="path1" /></g></svg>
